<mxfile host="app.diagrams.net" modified="2021-05-21T04:12:05.938Z" agent="5.0 (Macintosh; Intel Mac OS X 10_15_3) AppleWebKit/537.36 (KHTML, like Gecko) Chrome/91.0.4472.57 Safari/537.36 Edg/91.0.864.27" etag="tzXY5yH5yooh5giDRVVe" version="14.6.13" type="github">
  <diagram id="eeucXoAPeSbYZHnrNBV5" name="第 1 页">
    <mxGraphModel dx="1426" dy="726" grid="1" gridSize="10" guides="1" tooltips="1" connect="1" arrows="1" fold="1" page="1" pageScale="1" pageWidth="827" pageHeight="1169" math="0" shadow="0">
      <root>
        <mxCell id="0" />
        <mxCell id="1" parent="0" />
        <mxCell id="UUHo65cyQnK904xXfJYs-1" value="" style="fontColor=#0066CC;verticalAlign=top;verticalLabelPosition=bottom;labelPosition=center;align=center;html=1;outlineConnect=0;fillColor=#CCCCCC;strokeColor=#6881B3;gradientColor=none;gradientDirection=north;strokeWidth=2;shape=mxgraph.networks.pc;" vertex="1" parent="1">
          <mxGeometry x="90" y="390" width="100" height="70" as="geometry" />
        </mxCell>
        <mxCell id="UUHo65cyQnK904xXfJYs-8" style="edgeStyle=orthogonalEdgeStyle;rounded=0;orthogonalLoop=1;jettySize=auto;html=1;fontFamily=Comic Sans MS;fontSize=16;" edge="1" parent="1" source="UUHo65cyQnK904xXfJYs-2" target="UUHo65cyQnK904xXfJYs-1">
          <mxGeometry relative="1" as="geometry" />
        </mxCell>
        <mxCell id="UUHo65cyQnK904xXfJYs-2" value="" style="fontColor=#0066CC;verticalAlign=top;verticalLabelPosition=bottom;labelPosition=center;align=center;html=1;outlineConnect=0;fillColor=#CCCCCC;strokeColor=#6881B3;gradientColor=none;gradientDirection=north;strokeWidth=2;shape=mxgraph.networks.pc;" vertex="1" parent="1">
          <mxGeometry x="685" y="390" width="100" height="70" as="geometry" />
        </mxCell>
        <mxCell id="UUHo65cyQnK904xXfJYs-5" value="192.168.1.2" style="text;html=1;strokeColor=none;fillColor=none;align=center;verticalAlign=middle;whiteSpace=wrap;rounded=0;fontSize=16;fontStyle=1;fontFamily=Comic Sans MS;" vertex="1" parent="1">
          <mxGeometry x="80" y="490" width="100" height="20" as="geometry" />
        </mxCell>
        <mxCell id="UUHo65cyQnK904xXfJYs-6" value="&lt;font face=&quot;Comic Sans MS&quot; style=&quot;font-size: 16px&quot;&gt;&lt;b&gt;110.1.2.1&lt;/b&gt;&lt;/font&gt;" style="text;html=1;strokeColor=none;fillColor=none;align=center;verticalAlign=middle;whiteSpace=wrap;rounded=0;" vertex="1" parent="1">
          <mxGeometry x="680" y="490" width="110" height="20" as="geometry" />
        </mxCell>
      </root>
    </mxGraphModel>
  </diagram>
</mxfile>
